<svg xmlns="http://www.w3.org/2000/svg" width="226.667" height="226.667" preserveAspectRatio="xMidYMid meet" version="1.0" viewBox="0 0 170 170"><g fill="#000" stroke="none"><path d="M1072 1296 c-61 -41 -132 -101 -257 -216 -111 -102 -151 -138 -235 -210 -35 -30 -100 -86 -143 -125 -133 -118 -190 -161 -240 -180 -46 -17 -48 -17 -67 0 -11 10 -20 31 -20 46 0 37 55 101 83 97 33 -5 31 -26 -3 -47 -19 -11 -27 -22 -21 -26 16 -9 71 33 71 54 0 51 -67 56 -115 8 -57 -57 -57 -116 0 -153 22 -14 31 -15 68 -4 61 17 139 78 473 373 21 17 24 18 53 2 17 -8 58 -37 90 -63 l59 -46 -102 -151 c-96 -141 -166 -255 -166 -269 0 -8 69 -36 90 -36 15 0 35 29 57 87 15 40 137 181 175 203 58 33 127 37 182 10 25 -12 46 -25 46 -30 0 -4 -17 -10 -37 -13 -54 -9 -81 -32 -93 -78 -10 -35 -8 -46 10 -84 26 -54 39 -64 84 -72 45 -7 79 14 106 67 22 44 25 81 9 112 -25 47 20 33 97 -29 50 -41 62 -46 118 -50 49 -4 72 -1 114 17 64 28 77 42 63 68 -12 22 -67 45 -84 35 -5 -3 -17 3 -26 15 -40 52 -110 27 -132 -49 l-12 -39 -31 24 c-34 26 -110 66 -125 66 -5 0 -32 16 -60 35 -63 42 -108 51 -174 36 -27 -6 -52 -9 -54 -7 -2 2 24 34 58 70 l62 66 -83 78 -82 77 109 105 c59 58 126 121 147 139 l39 33 -15 41 c-8 22 -19 42 -25 44 -5 2 -33 -12 -61 -31z m423 -716 c0 -17 5 -24 15 -21 8 3 31 5 50 5 50 1 45 -24 -10 -51 -47 -24 -143 -32 -155 -12 -10 15 2 52 26 83 28 36 74 34 74 -4z m-291 -24 c21 -44 20 -54 -5 -96 -45 -75 -91 -89 -133 -39 -28 33 -34 85 -15 120 13 25 63 48 105 49 26 0 34 -6 48 -34z" transform="translate(0.000000,170.000000) scale(0.100000,-0.100000)"/></g></svg>