<?xml version="1.0" standalone="no"?>
<!DOCTYPE svg PUBLIC "-//W3C//DTD SVG 20010904//EN"
 "http://www.w3.org/TR/2001/REC-SVG-20010904/DTD/svg10.dtd">
<svg version="1.0" xmlns="http://www.w3.org/2000/svg"
 width="652.000000pt" height="551.000000pt" viewBox="0 0 652.000000 551.000000"
 preserveAspectRatio="xMidYMid meet">

<g transform="translate(0.000000,551.000000) scale(0.100000,-0.100000)"
fill="#000000" stroke="none">
<path d="M3166 5193 c-3 -60 -22 -191 -41 -293 -19 -102 -42 -232 -50 -290
-60 -409 -48 -381 -221 -503 -134 -95 -239 -166 -296 -200 -32 -20 -28 -53 8
-69 35 -16 71 3 239 129 82 62 152 113 156 113 8 0 -29 -184 -66 -330 -90
-358 -219 -760 -325 -1010 -43 -102 -97 -232 -120 -290 -49 -125 -165 -358
-188 -381 -19 -18 -195 -82 -355 -129 -204 -59 -927 -385 -927 -417 0 -21 41
-52 69 -53 13 0 58 20 100 44 219 129 671 316 1044 433 27 8 12 -19 -63 -122
-37 -49 -100 -139 -140 -200 -238 -355 -402 -521 -624 -631 -105 -52 -170 -64
-232 -44 -60 19 -158 94 -207 158 -61 78 -142 222 -177 313 -44 115 -52 183
-48 416 l3 208 39 94 c71 174 148 276 243 322 40 20 50 21 97 10 69 -15 108
-40 148 -95 18 -25 43 -48 54 -52 22 -6 77 17 89 36 7 12 -126 139 -173 165
-29 15 -54 19 -117 17 -69 -1 -90 -6 -152 -37 -180 -89 -312 -324 -334 -597
-9 -112 -1 -296 17 -385 6 -29 2 -33 -52 -70 -119 -79 -271 -169 -369 -218
-112 -56 -126 -77 -79 -114 39 -31 21 -40 351 167 90 56 166 102 170 102 5 0
24 -35 43 -78 47 -104 141 -244 215 -318 173 -174 365 -169 642 16 209 141
279 218 539 594 174 252 207 302 235 349 25 41 33 46 120 76 83 29 209 83 554
238 120 53 526 215 530 211 12 -12 55 -132 55 -152 0 -18 -38 -60 -147 -166
l-147 -143 30 -23 c50 -41 63 -34 181 91 59 63 111 115 114 115 12 0 32 -179
22 -192 -76 -100 -182 -227 -200 -241 -31 -25 -30 -55 4 -68 59 -22 111 17
185 137 34 58 55 68 62 32 3 -13 14 -64 26 -114 19 -82 21 -102 11 -180 -6
-55 -7 -136 -2 -212 8 -126 13 -141 52 -142 26 0 150 40 175 57 l23 15 -29 57
c-47 95 -83 235 -77 300 10 104 75 270 224 571 80 162 172 350 204 417 86 181
120 228 183 252 84 32 201 84 366 161 207 96 331 150 346 150 14 0 94 -106 94
-124 0 -12 -155 -158 -227 -215 -24 -19 -45 -43 -49 -53 -7 -24 22 -58 50 -58
26 0 142 90 206 160 26 28 51 50 57 50 12 0 33 -96 33 -149 0 -25 -12 -54 -41
-96 -50 -75 -106 -183 -130 -254 -58 -166 16 -314 156 -315 30 -1 59 4 65 10
18 18 39 161 51 356 6 101 16 189 22 196 5 6 28 12 51 12 33 0 48 -6 68 -27
39 -42 50 -93 50 -219 l0 -114 49 0 c45 0 50 3 60 27 6 16 11 69 11 119 1 76
-3 99 -24 145 -29 63 -79 124 -119 145 -16 8 -56 14 -93 14 l-65 0 -6 38 c-3
20 -14 70 -25 109 -11 40 -20 79 -20 86 0 8 24 30 53 50 67 47 111 117 73 117
-8 0 -50 -18 -93 -40 l-78 -41 -15 23 c-8 12 -27 37 -42 54 -16 17 -28 34 -28
37 0 3 14 9 32 12 17 4 75 28 127 52 53 25 106 49 118 53 19 8 30 -3 100 -92
85 -110 240 -241 278 -236 40 6 26 37 -54 123 -72 78 -207 253 -199 260 9 7
328 115 508 171 113 36 211 70 218 78 17 16 5 45 -23 56 -12 4 -42 4 -68 -1
-145 -27 -719 -238 -1000 -368 -49 -23 -95 -41 -103 -41 -7 0 -29 11 -49 25
-61 40 -145 68 -206 68 -70 -1 -197 -35 -247 -67 -51 -32 -320 -310 -368 -380
l-39 -57 -170 -68 c-187 -75 -376 -153 -620 -256 -88 -37 -252 -105 -365 -150
-113 -46 -275 -114 -360 -153 -281 -126 -365 -162 -377 -162 -7 0 14 52 47
118 32 65 72 154 89 199 16 44 63 159 104 254 143 332 284 789 392 1268 20 91
42 175 48 188 5 13 31 36 56 51 105 65 192 114 195 111 2 -2 16 -28 30 -57 40
-80 87 -125 168 -163 54 -24 91 -34 141 -37 37 -2 67 -8 67 -14 0 -5 -9 -26
-20 -48 -11 -22 -20 -52 -20 -68 0 -34 30 -77 59 -85 46 -12 141 59 141 105 0
28 -28 89 -52 115 -12 13 -20 24 -17 26 2 1 30 15 62 30 59 28 71 49 38 67
-32 16 -54 12 -125 -25 -72 -38 -120 -44 -186 -24 -60 18 -129 78 -172 149
-37 61 -38 66 -21 78 130 94 291 202 341 229 34 19 62 38 62 42 0 14 -34 39
-60 46 -21 5 -41 -5 -105 -51 -131 -94 -278 -194 -285 -194 -7 0 -22 47 -62
195 -23 84 -49 479 -41 603 l6 82 -55 0 -55 0 -7 -107z m48 -527 c3 -36 22
-117 42 -182 19 -64 34 -117 32 -119 -10 -9 -178 -94 -178 -90 0 3 9 40 19 83
11 42 22 115 26 162 5 78 20 175 31 208 9 28 21 0 28 -62z m1836 -1359 c60
-21 50 -41 -37 -77 -43 -18 -170 -77 -282 -131 -112 -55 -206 -99 -208 -99
-28 0 191 223 269 274 65 42 186 58 258 33z m-851 -589 c-47 -88 -77 -152
-149 -313 -35 -77 -66 -144 -70 -148 -4 -5 -26 1 -48 13 -23 12 -49 19 -60 16
-11 -4 -47 -42 -81 -86 -34 -44 -65 -80 -70 -80 -8 0 -31 110 -31 147 0 23
105 130 179 181 73 50 97 83 82 111 -9 17 -21 21 -59 21 -46 0 -49 -2 -135
-91 -49 -50 -90 -89 -92 -87 -1 2 -14 31 -28 66 l-25 63 26 10 c15 6 74 30
132 54 58 24 159 65 225 91 66 25 145 59 175 74 30 16 57 26 59 24 2 -2 -11
-32 -30 -66z m1126 -355 c-9 -59 -20 -112 -25 -117 -18 -18 -40 15 -40 59 0
54 35 191 58 224 l17 26 3 -42 c2 -23 -4 -90 -13 -150z m-1375 -159 c0 -4 -21
-45 -46 -91 -25 -46 -56 -114 -69 -151 -41 -119 -45 -124 -64 -71 -25 72 -16
105 55 201 61 82 97 118 116 118 5 0 8 -3 8 -6z"/>
<path d="M4611 4413 c-43 -53 -38 -120 11 -156 38 -28 73 -17 98 34 26 51 20
89 -22 124 -38 32 -61 32 -87 -2z"/>
<path d="M4196 4319 c-63 -50 -66 -103 -5 -134 33 -18 59 -13 102 17 37 27 38
79 1 113 -33 30 -63 32 -98 4z"/>
<path d="M4567 4153 c-8 -16 -22 -53 -32 -83 -20 -64 -72 -150 -89 -150 -15 0
-38 47 -60 122 -18 63 -35 78 -88 78 -47 0 -53 -8 -67 -78 -10 -53 -119 -344
-135 -359 -9 -9 -34 12 -92 77 -31 36 -63 69 -70 73 -20 11 -94 -29 -94 -52 0
-28 266 -567 284 -574 18 -7 75 10 95 29 12 11 12 20 4 49 -13 40 -12 40 56
61 27 8 78 35 112 61 112 82 266 139 344 127 33 -4 51 -2 74 12 38 22 38 33 6
88 -51 87 -97 255 -115 420 -11 104 -25 126 -81 126 -32 0 -41 -5 -52 -27z
m48 -250 c4 -21 21 -87 40 -148 18 -60 35 -116 37 -124 2 -9 -15 -17 -57 -26
-90 -20 -193 -60 -282 -110 -44 -25 -110 -54 -148 -64 -65 -18 -68 -18 -85 -1
-19 19 -93 160 -87 166 2 2 18 -1 36 -6 43 -12 76 5 125 62 38 44 86 172 86
229 0 41 20 37 59 -11 25 -32 39 -40 65 -40 59 0 124 29 157 71 17 21 35 39
39 39 5 0 12 -17 15 -37z"/>
<path d="M4723 2323 c-21 -8 -15 -37 18 -81 23 -31 33 -59 39 -105 12 -98 52
-157 95 -141 39 15 39 41 4 181 -30 120 -54 153 -108 152 -20 0 -42 -3 -48 -6z"/>
<path d="M4394 2165 c-3 -8 -3 -19 1 -25 4 -6 13 -53 20 -105 7 -54 21 -109
32 -127 18 -30 24 -33 66 -32 59 0 77 16 57 47 -38 59 -50 94 -50 145 0 68
-11 89 -58 102 -50 13 -62 13 -68 -5z"/>
<path d="M4880 1700 c-9 -5 -13 -27 -11 -64 3 -98 -69 -203 -114 -166 -9 8
-25 31 -36 52 -11 21 -34 47 -51 58 -30 18 -33 18 -60 2 -47 -27 -46 -54 3
-113 80 -94 157 -120 244 -80 52 23 91 70 105 124 6 23 15 55 20 71 16 47 12
73 -15 90 -39 25 -70 35 -85 26z"/>
<path d="M5214 1391 c6 -61 36 -191 81 -351 19 -69 19 -133 -1 -190 -19 -55
-12 -96 26 -148 41 -57 80 -76 128 -62 83 22 122 65 152 166 10 35 10 46 -5
75 -35 69 -64 99 -96 99 -38 0 -65 14 -80 42 -16 29 -67 226 -84 323 -16 91
-35 115 -92 115 l-36 0 7 -69z m266 -598 c-10 -42 -22 -56 -45 -51 -46 8 -44
77 3 102 37 20 53 1 42 -51z"/>
<path d="M4392 1117 c-9 -11 -9 -25 3 -63 8 -27 24 -98 36 -159 11 -60 25
-122 31 -137 8 -23 5 -33 -21 -72 -17 -24 -31 -47 -31 -50 0 -3 -18 -34 -40
-68 -45 -70 -48 -95 -21 -154 21 -46 59 -80 101 -89 67 -15 174 44 210 115 33
64 29 98 -22 186 -25 44 -55 104 -66 136 -24 64 -52 213 -52 274 0 25 -7 50
-17 63 -23 27 -94 39 -111 18z m156 -602 c3 -52 -29 -108 -60 -103 -39 6 -43
30 -15 92 22 48 30 57 49 54 19 -2 23 -10 26 -43z"/>
</g>
</svg>
