<svg xmlns="http://www.w3.org/2000/svg" width="994.667" height="994.667" preserveAspectRatio="xMidYMid meet" version="1.0" viewBox="0 0 746 746"><g fill="#000" stroke="none"><path d="M3197 5960 c-182 -33 -386 -147 -652 -366 -229 -188 -432 -435 -613 -741 -36 -62 -69 -113 -73 -113 -3 0 -9 100 -12 223 -12 511 -117 776 -356 897 -141 71 -313 65 -474 -17 -306 -154 -557 -456 -666 -797 -81 -253 -73 -450 26 -594 86 -126 237 -181 423 -153 88 13 283 103 288 134 6 29 -37 21 -133 -28 -59 -30 -118 -51 -171 -62 -74 -14 -88 -14 -158 0 -134 27 -200 83 -247 206 -19 51 -21 70 -16 211 5 171 24 255 93 415 117 270 340 504 600 626 103 49 167 62 268 57 151 -9 273 -91 341 -231 62 -128 102 -304 126 -552 13 -136 7 -491 -9 -521 -6 -12 -35 -26 -79 -38 -221 -61 -515 -154 -626 -198 -492 -193 -716 -411 -792 -771 -20 -91 -19 -139 5 -232 48 -189 165 -296 361 -331 53 -10 108 -13 149 -9 212 21 363 96 533 267 120 121 215 271 287 452 32 81 39 53 23 -88 -21 -187 -35 -723 -24 -928 20 -347 82 -601 207 -837 135 -255 265 -372 446 -403 153 -27 352 67 633 297 114 93 184 166 270 280 l60 80 7 -99 c5 -76 13 -111 33 -152 48 -97 131 -138 203 -100 34 18 109 96 193 201 185 230 325 341 479 381 57 14 63 14 98 -3 49 -24 77 -69 92 -148 16 -84 8 -184 -31 -379 -35 -181 -37 -222 -9 -231 28 -9 32 -5 74 80 72 145 245 347 394 460 159 121 330 184 421 156 91 -27 128 -84 197 -309 68 -217 111 -292 202 -351 26 -16 76 -38 111 -47 54 -13 72 -14 125 -3 33 6 95 13 136 14 50 1 86 7 109 19 77 40 184 164 246 284 15 29 31 54 35 57 5 3 13 -17 19 -45 26 -120 100 -205 218 -251 82 -31 231 -37 354 -14 98 17 213 57 239 82 13 12 11 13 -15 3 -49 -18 -311 -60 -379 -60 -66 0 -155 20 -220 49 -65 28 -111 84 -134 160 -38 123 -38 139 4 263 62 186 51 280 -45 381 -57 61 -103 80 -178 74 -43 -3 -76 -13 -108 -31 -245 -144 -406 -453 -374 -718 9 -76 26 -113 78 -177 l36 -44 -85 5 c-99 5 -148 26 -203 87 -50 55 -60 77 -113 252 -69 231 -108 295 -207 345 -66 34 -120 39 -196 19 -185 -48 -420 -227 -587 -447 -70 -91 -91 -115 -99 -107 -1 2 8 54 21 114 24 111 33 270 18 330 -18 74 -79 153 -137 174 -42 16 -115 13 -173 -7 -127 -44 -238 -137 -437 -367 -164 -189 -215 -230 -261 -212 -43 17 -96 142 -96 227 1 72 29 189 70 290 44 110 51 150 30 175 -19 23 -50 19 -50 -7 0 -41 -66 -215 -108 -286 -126 -212 -369 -445 -620 -595 -198 -117 -325 -132 -476 -55 -187 96 -362 450 -436 883 -28 163 -35 448 -21 820 16 441 53 773 85 778 5 1 18 -36 27 -83 67 -315 357 -550 679 -550 151 0 255 28 432 116 338 167 558 382 608 593 36 151 -51 329 -211 432 -81 52 -221 107 -331 130 -174 38 -462 30 -635 -17 -112 -31 -80 -10 72 45 251 91 266 98 442 188 327 167 574 354 699 530 159 221 144 436 -36 537 -51 28 -63 31 -160 33 -58 1 -126 -2 -153 -7z m289 -62 c118 -55 146 -227 65 -392 -109 -222 -449 -475 -921 -685 -169 -75 -341 -136 -580 -205 -85 -25 -164 -48 -174 -52 -17 -6 -18 -4 -12 22 10 45 120 260 178 349 71 110 178 253 264 356 193 228 524 478 757 570 147 59 342 76 423 37z m-553 -1294 c190 -30 341 -99 433 -196 101 -107 119 -273 45 -423 -92 -185 -404 -411 -714 -517 -85 -29 -102 -32 -227 -32 -117 -1 -145 2 -209 23 -239 78 -398 288 -445 586 -18 116 -12 157 35 245 78 146 183 215 424 276 54 14 138 31 185 39 121 19 352 18 473 -1z m-726 0 c-3 -3 -12 -4 -19 -1 -8 3 -5 6 6 6 11 1 17 -2 13 -5z m-190 -74 c-38 -22 -96 -64 -129 -95 -34 -30 -63 -53 -66 -51 -2 3 1 30 8 60 13 65 16 67 137 100 121 34 128 32 50 -14z m-252 -97 c-19 -136 -108 -484 -166 -648 -79 -226 -217 -441 -363 -567 -93 -80 -159 -120 -256 -153 -244 -83 -475 -40 -572 106 -79 119 -96 255 -54 422 82 322 328 533 826 708 111 39 559 177 578 178 10 1 12 -10 7 -46z m4575 -1950 c57 -49 80 -101 80 -185 l0 -67 -32 10 c-18 5 -35 9 -39 9 -3 0 -4 -37 -1 -82 7 -135 -34 -215 -180 -357 -77 -76 -231 -181 -263 -181 -37 0 -93 64 -111 127 -36 125 -10 293 69 448 31 60 64 103 132 172 104 106 169 143 251 143 44 0 56 -5 94 -37z" transform="translate(0.000000,746.000000) scale(0.100000,-0.100000)"/><path d="M3605 3456 c-44 -19 -149 -136 -179 -199 -51 -109 -73 -236 -78 -457 l-3 -135 31 -3 c29 -3 31 -1 26 23 -6 35 10 51 168 163 199 141 298 218 359 276 58 55 111 130 111 156 0 36 -89 90 -147 90 -42 -1 -111 -35 -159 -80 -24 -22 -48 -40 -54 -40 -12 0 -13 -7 10 70 28 90 26 107 -12 130 -38 23 -35 23 -73 6z m55 -51 c0 -21 -51 -167 -89 -252 -46 -104 -27 -136 38 -62 121 138 168 181 224 209 71 35 107 38 133 9 18 -20 18 -21 -6 -65 -13 -25 -55 -74 -94 -108 -71 -63 -283 -223 -405 -305 l-64 -44 7 124 c14 229 60 363 160 457 54 51 96 67 96 37z" transform="translate(0.000000,746.000000) scale(0.100000,-0.100000)"/></g></svg>