<?xml version="1.0" standalone="no"?>
<!DOCTYPE svg PUBLIC "-//W3C//DTD SVG 20010904//EN"
 "http://www.w3.org/TR/2001/REC-SVG-20010904/DTD/svg10.dtd">
<svg version="1.0" xmlns="http://www.w3.org/2000/svg"
 width="616.000000pt" height="616.000000pt" viewBox="0 0 616.000000 616.000000"
 preserveAspectRatio="xMidYMid meet">

<g transform="translate(0.000000,616.000000) scale(0.100000,-0.100000)"
fill="#000000" stroke="none">
<path d="M2590 5494 c-73 -20 -236 -100 -330 -163 -138 -92 -230 -187 -334
-348 -24 -38 -51 -74 -58 -80 -7 -7 -53 -19 -102 -28 -108 -20 -323 -93 -428
-144 l-77 -38 -33 34 c-73 76 -303 201 -476 259 -214 72 -324 50 -352 -72 -25
-106 -1 -258 70 -441 53 -138 207 -372 265 -403 24 -13 25 -17 25 -122 0 -122
8 -148 47 -148 22 0 24 3 18 23 -16 51 -16 174 -1 245 16 77 73 200 136 293
49 70 179 194 272 255 118 79 334 164 519 206 147 33 403 33 531 1 211 -54
378 -143 510 -274 140 -139 214 -272 282 -509 67 -230 87 -372 86 -619 0 -497
-122 -996 -360 -1466 -133 -263 -215 -400 -332 -557 -257 -347 -454 -549 -743
-765 -206 -154 -205 -153 -205 -169 0 -27 130 51 285 170 279 215 577 545 797
881 158 242 318 557 403 795 101 281 145 453 184 721 38 262 44 358 32 501
-34 393 -113 676 -243 870 l-60 89 1 223 c2 245 -9 364 -46 506 -31 123 -73
209 -123 254 -45 41 -69 44 -160 20z m118 -50 c12 -8 31 -32 41 -52 32 -63 80
-228 96 -325 16 -101 26 -497 12 -497 -5 0 -35 24 -68 53 -121 107 -300 198
-476 243 -105 26 -291 48 -334 39 -40 -9 -37 5 13 79 65 96 143 189 196 233
113 96 305 200 418 227 77 19 76 19 102 0z m-2078 -480 c99 -18 145 -36 312
-119 128 -64 202 -111 246 -158 l23 -25 -100 -81 c-55 -45 -124 -112 -154
-149 -58 -71 -132 -196 -163 -274 -11 -27 -24 -48 -31 -48 -16 0 -144 193
-192 289 -82 163 -129 350 -117 464 7 68 19 95 49 107 30 12 34 12 127 -6z"/>
<path d="M5440 5347 c-79 -33 -283 -188 -336 -255 -24 -31 -63 -92 -86 -135
-24 -42 -94 -164 -157 -270 -63 -106 -133 -232 -157 -282 -70 -147 -205 -554
-239 -718 l-6 -28 -32 19 c-35 21 -141 57 -198 66 -53 9 -135 -10 -214 -49
-87 -43 -270 -197 -337 -285 -60 -79 -212 -380 -227 -450 -23 -109 -8 -195 44
-247 39 -39 51 -40 96 -10 89 59 186 291 288 690 27 103 56 196 65 206 26 28
136 78 202 91 50 10 70 9 124 -5 91 -23 174 -70 224 -126 48 -54 110 -166 131
-236 54 -187 45 -553 -21 -781 -48 -167 -230 -586 -264 -607 -6 -4 -26 -9 -43
-12 -63 -9 -161 -36 -211 -58 -118 -53 -338 -236 -522 -433 -156 -168 -198
-226 -262 -360 -67 -143 -68 -203 -1 -238 28 -14 35 -14 80 0 108 36 260 150
466 350 131 127 221 237 350 431 312 469 479 848 514 1172 15 135 6 414 -16
498 -21 81 -64 168 -123 246 -27 35 -51 72 -55 82 -8 22 36 196 103 407 99
310 139 399 306 682 55 92 124 210 154 264 63 109 122 171 270 276 117 83 157
98 205 75 82 -39 143 -215 165 -477 16 -191 -9 -345 -79 -495 -52 -111 -107
-177 -175 -210 l-55 -27 -56 26 c-30 13 -79 48 -108 75 -81 76 -83 74 -90 -76
-7 -189 -52 -313 -113 -313 -16 0 -43 18 -80 56 -77 76 -88 72 -94 -41 -6 -99
-27 -156 -67 -182 -17 -11 -57 -18 -129 -21 -91 -4 -104 -7 -104 -22 0 -34 26
-43 108 -37 92 7 159 34 200 82 29 32 52 89 52 127 0 28 18 31 54 9 70 -44
138 -16 180 73 30 62 56 176 56 242 0 24 3 44 6 44 3 0 20 -11 38 -25 140
-107 280 -53 402 155 94 159 137 367 115 564 -24 228 -66 373 -127 445 -66 76
-129 94 -214 58z m-1591 -1868 c-33 -147 -148 -511 -191 -610 -30 -66 -83
-129 -109 -129 -10 0 -24 10 -31 23 -19 34 -15 182 6 242 28 79 152 322 187
368 39 51 131 147 140 147 4 0 3 -19 -2 -41z m451 -1605 c0 -26 -257 -406
-350 -517 -176 -210 -523 -487 -611 -487 -33 0 -44 27 -30 78 21 79 98 223
159 298 194 238 461 481 617 562 78 40 215 82 215 66z"/>
<path d="M2355 4406 c-69 -30 -288 -305 -309 -389 -21 -85 83 -127 357 -143
105 -7 107 -7 107 14 0 12 -3 22 -7 22 -5 0 -60 5 -123 10 -273 25 -309 44
-261 138 29 56 155 216 224 283 63 62 68 89 12 65z"/>
<path d="M1350 4218 c-19 -13 -45 -45 -59 -73 -24 -45 -26 -60 -25 -170 0
-103 3 -127 23 -168 46 -98 117 -150 174 -128 128 49 125 416 -3 525 -17 14
-35 26 -40 26 -5 0 -15 2 -22 5 -8 3 -29 -5 -48 -17z"/>
<path d="M2670 3673 c-44 -9 -147 -60 -238 -118 -100 -66 -152 -112 -152 -136
0 -38 155 -63 243 -38 20 5 79 38 130 73 50 35 115 75 144 89 28 15 54 31 57
36 9 14 -44 72 -81 87 -32 14 -56 15 -103 7z"/>
<path d="M1125 3421 c-85 -31 -135 -60 -190 -114 -77 -74 -83 -123 -18 -148
30 -11 112 11 215 60 186 88 242 163 154 205 -43 20 -98 19 -161 -3z m-118
-158 c-9 -9 -19 -14 -23 -11 -10 10 6 28 24 28 15 0 15 -1 -1 -17z"/>
</g>
</svg>
