<?xml version="1.0" standalone="no"?>
<!DOCTYPE svg PUBLIC "-//W3C//DTD SVG 20010904//EN"
 "http://www.w3.org/TR/2001/REC-SVG-20010904/DTD/svg10.dtd">
<svg version="1.0" xmlns="http://www.w3.org/2000/svg"
 width="616.000000pt" height="616.000000pt" viewBox="0 0 616.000000 616.000000"
 preserveAspectRatio="xMidYMid meet">

<g transform="translate(0.000000,616.000000) scale(0.100000,-0.100000)"
fill="#000000" stroke="none">
<path d="M2852 5530 c-46 -4 -89 -13 -95 -19 -9 -9 13 -10 88 -5 193 13 289
-19 572 -188 168 -100 252 -163 361 -271 156 -153 273 -320 387 -552 80 -163
111 -245 149 -387 56 -213 61 -253 60 -558 0 -257 -2 -295 -22 -389 -38 -175
-109 -380 -196 -566 -301 -643 -1061 -1135 -1893 -1226 -101 -11 -230 -21
-286 -22 l-101 -2 -10 40 c-5 22 -10 126 -10 230 -1 149 3 208 18 275 21 99
85 300 95 300 4 0 14 -13 24 -29 9 -15 57 -67 106 -114 153 -145 420 -308 529
-323 44 -6 51 -4 61 14 15 28 14 101 -3 208 -8 49 -17 177 -20 284 -3 107 -12
249 -20 315 -8 66 -17 154 -21 195 -3 41 -14 140 -25 220 -20 158 -36 316 -50
510 -5 69 -10 398 -10 733 0 545 -2 607 -16 607 -31 0 -167 -64 -267 -124
-192 -117 -515 -336 -571 -387 -78 -71 -79 -75 -51 -145 83 -205 103 -432 70
-780 -27 -282 -95 -586 -188 -839 -44 -119 -183 -374 -274 -503 -51 -72 -45
-81 14 -19 99 103 248 377 321 588 81 234 113 374 148 649 31 245 40 471 25
613 -13 119 -61 297 -92 340 -22 30 -18 47 11 47 10 0 21 4 24 9 15 23 477
335 623 419 70 41 157 82 173 82 4 0 8 -280 8 -622 0 -555 2 -642 19 -793 11
-93 17 -173 14 -177 -3 -4 -53 -32 -109 -63 -57 -31 -136 -77 -174 -101 -110
-71 -197 -114 -228 -114 -42 0 -56 51 -41 150 14 90 41 160 141 365 62 126
100 189 180 295 102 134 181 272 166 287 -4 4 -38 8 -74 7 -52 0 -80 -7 -125
-29 -156 -77 -348 -297 -424 -487 -37 -91 -53 -192 -59 -388 -11 -305 24 -521
123 -764 31 -77 34 -92 25 -120 -53 -151 -66 -194 -89 -286 -21 -86 -26 -131
-27 -250 0 -80 3 -188 7 -241 l8 -97 -68 5 c-323 22 -437 55 -714 210 -164 91
-239 127 -247 118 -10 -10 21 -92 79 -210 103 -210 200 -318 434 -482 266
-189 526 -323 729 -378 263 -71 780 -99 1028 -55 227 40 623 176 873 300 482
237 921 616 1123 970 82 145 207 462 251 643 35 144 62 426 63 662 0 190 -3
227 -30 385 -38 220 -78 342 -190 577 -49 104 -94 203 -101 222 -28 85 -157
277 -294 439 -107 127 -457 411 -614 499 -130 72 -404 188 -543 229 -171 50
-283 66 -485 69 -104 2 -227 0 -273 -5z m563 -52 c169 -34 282 -73 501 -170
230 -102 312 -154 560 -351 160 -128 254 -222 349 -348 105 -140 161 -234 209
-351 24 -57 65 -148 93 -203 102 -204 154 -364 190 -595 27 -170 24 -565 -5
-790 -30 -231 -66 -358 -186 -650 -116 -282 -297 -513 -588 -751 -299 -244
-556 -395 -888 -521 -279 -105 -419 -146 -634 -184 -173 -30 -606 -9 -851 41
-233 48 -446 146 -735 338 -224 149 -347 255 -420 362 -32 47 -144 260 -155
294 l-7 24 43 -25 c24 -14 73 -42 109 -63 133 -77 279 -145 363 -169 102 -30
290 -56 399 -56 90 0 82 9 118 -125 33 -126 102 -257 162 -309 44 -38 88 -63
88 -50 0 2 -24 30 -53 62 -70 76 -109 146 -152 274 -50 151 -52 144 53 152
158 12 415 45 512 65 355 74 699 210 940 374 450 304 682 593 860 1072 105
283 135 473 127 810 -5 221 -18 313 -73 508 -72 255 -232 563 -411 791 -80
101 -205 221 -300 289 -94 67 -354 217 -430 249 -29 12 -53 26 -53 31 0 14
144 0 265 -25z m-995 -1521 c0 -20 -63 -121 -149 -237 -107 -145 -133 -185
-168 -260 -17 -36 -49 -105 -72 -154 -61 -129 -93 -231 -98 -318 -6 -75 -5
-77 25 -107 37 -37 61 -38 130 -6 54 25 234 132 287 171 35 25 95 57 100 52 2
-2 -35 -45 -81 -97 -75 -83 -148 -184 -239 -330 -37 -59 -105 -197 -145 -293
-17 -43 -36 -78 -41 -78 -13 0 -23 24 -63 145 -71 219 -80 278 -80 580 -1 233
2 279 17 335 66 232 264 487 451 580 62 31 126 40 126 17z m145 -1019 c8 -79
21 -215 30 -302 9 -88 20 -264 26 -390 5 -127 13 -253 18 -281 6 -27 10 -85
10 -128 l1 -77 -27 6 c-163 39 -450 236 -577 396 -31 38 -56 76 -56 83 0 17
108 252 158 341 88 160 179 288 305 431 61 69 83 89 89 79 5 -8 15 -79 23
-158z"/>
<path d="M3597 3658 c-14 -40 -27 -81 -29 -92 -2 -13 -25 -27 -74 -46 -82 -31
-154 -70 -154 -82 0 -10 67 -40 142 -65 42 -13 49 -19 44 -37 -3 -12 -10 -54
-17 -94 -13 -80 -17 -86 -85 -133 -48 -32 -51 -46 -11 -35 25 6 212 140 236
169 7 9 17 17 22 17 4 0 27 -27 49 -60 22 -33 49 -64 60 -70 17 -9 20 -8 20
12 0 13 -4 39 -9 58 -5 19 -12 64 -16 100 l-6 66 103 113 c150 165 145 154 64
146 -38 -4 -95 -16 -127 -25 l-59 -18 -20 46 c-24 55 -66 102 -91 102 -11 0
-24 -22 -42 -72z m87 -31 c11 -26 17 -49 14 -53 -10 -9 -88 -17 -88 -9 0 7 13
58 26 103 7 25 29 6 48 -41z m236 -33 c0 -4 -19 -28 -43 -53 -23 -25 -54 -61
-69 -78 -15 -18 -29 -33 -32 -33 -5 0 -20 86 -21 114 0 5 32 20 70 32 75 24
95 28 95 18z m-194 -145 c5 -78 4 -86 -18 -113 l-24 -28 -53 27 -53 28 7 61
c11 94 17 102 72 113 26 5 52 7 56 3 4 -4 10 -45 13 -91z m-180 -1 c-4 -29 -9
-54 -11 -56 -2 -3 -37 6 -77 18 l-72 22 24 19 c28 21 95 47 124 48 17 1 18 -4
12 -51z m64 -130 c19 -13 35 -27 36 -33 3 -10 -95 -90 -101 -83 -6 6 18 138
26 138 3 0 21 -10 39 -22z m143 -55 c8 -41 -3 -42 -30 -4 -20 26 -20 29 -5 45
19 18 26 11 35 -41z"/>
<path d="M2670 3153 c-19 -7 -60 -44 -60 -55 0 -15 25 -8 63 17 50 34 48 57
-3 38z"/>
<path d="M3144 2543 c-53 -106 -53 -106 -184 -159 -30 -13 -56 -27 -58 -33 -2
-5 21 -15 50 -21 30 -7 62 -18 72 -25 16 -12 16 -16 2 -59 -9 -26 -16 -54 -16
-63 0 -44 -25 -95 -54 -110 l-30 -15 37 -13 c21 -7 43 -18 51 -24 19 -16 29 0
20 33 -3 13 0 35 7 48 17 32 94 108 109 108 7 0 45 -26 84 -58 116 -96 146
-103 146 -35 0 44 -26 152 -51 210 l-18 42 85 82 c76 74 100 109 76 109 -23 0
-165 -41 -192 -55 -18 -9 -34 -15 -36 -13 -2 2 -11 33 -20 69 -9 35 -20 68
-24 72 -4 5 -30 -35 -56 -90z m56 -42 c7 -24 5 -31 -5 -31 -7 0 -21 -3 -31 -7
-15 -5 -16 -2 -10 23 8 29 26 58 33 51 2 -3 8 -18 13 -36z m201 2 c-5 -10 -30
-38 -56 -63 -44 -43 -47 -44 -61 -26 -27 37 -17 53 49 79 76 31 80 31 68 10z
m-156 -83 c8 -16 15 -35 15 -43 0 -18 -94 -107 -112 -107 -7 0 -26 12 -42 26
l-29 26 21 44 c15 30 34 50 59 63 54 27 70 25 88 -9z m-180 -57 c-20 -48 -20
-48 -50 -29 -33 22 -32 29 8 49 52 26 60 22 42 -20z m238 -68 c25 -86 46 -170
42 -173 -3 -4 -127 82 -160 110 -12 11 73 96 94 94 8 0 19 -14 24 -31z m-193
-36 l24 -21 -34 -29 c-38 -31 -50 -35 -50 -18 0 20 23 89 29 89 3 -1 17 -10
31 -21z"/>
</g>
</svg>
