<?xml version="1.0" standalone="no"?>
<!DOCTYPE svg PUBLIC "-//W3C//DTD SVG 20010904//EN"
 "http://www.w3.org/TR/2001/REC-SVG-20010904/DTD/svg10.dtd">
<svg version="1.0" xmlns="http://www.w3.org/2000/svg"
 width="616.000000pt" height="616.000000pt" viewBox="0 0 616.000000 616.000000"
 preserveAspectRatio="xMidYMid meet">

<g transform="translate(0.000000,616.000000) scale(0.100000,-0.100000)"
fill="#000000" stroke="none">
<path d="M3780 5425 c0 -17 71 -199 100 -256 11 -21 34 -54 51 -74 56 -64 67
-36 19 49 -17 29 -44 90 -60 136 -39 105 -56 137 -79 150 -26 13 -31 13 -31
-5z"/>
<path d="M3052 5343 c-6 -10 -19 -56 -31 -102 -11 -46 -22 -85 -23 -86 -2 -1
-55 -17 -118 -35 -201 -56 -480 -194 -704 -347 -250 -171 -329 -234 -490 -392
-205 -202 -314 -329 -425 -495 -50 -74 -95 -137 -100 -141 -6 -3 -13 7 -17 22
-3 15 -10 44 -15 64 -35 140 -119 620 -119 678 0 16 6 33 13 39 6 5 82 47 167
93 158 84 190 105 190 122 0 22 -73 -8 -218 -88 -84 -47 -155 -85 -159 -85 -3
0 -2 99 2 220 7 220 7 220 -14 220 -19 0 -21 -6 -22 -52 -1 -29 -4 -136 -8
-238 l-6 -184 -88 -61 c-97 -68 -157 -122 -157 -142 0 -21 15 -15 67 24 64 49
186 134 189 130 1 -1 12 -69 24 -152 30 -208 74 -442 104 -555 14 -52 26 -105
26 -117 0 -13 -16 -48 -37 -80 -57 -90 -188 -368 -227 -483 -77 -227 -110
-473 -72 -525 13 -19 15 -18 54 7 38 26 127 128 189 218 58 85 169 317 218
455 7 19 8 19 18 -5 111 -261 268 -530 308 -530 18 0 8 26 -36 94 -77 119
-249 476 -249 516 1 20 35 118 81 230 87 211 159 416 194 550 l22 85 131 134
c293 299 803 618 1145 717 47 13 93 27 102 29 13 5 15 -11 15 -122 -1 -123 0
-128 20 -131 20 -3 21 3 27 120 9 174 3 164 103 178 160 23 264 -8 353 -105
116 -128 112 -316 -10 -500 -63 -94 -156 -180 -314 -290 -129 -90 -141 -100
-127 -109 24 -14 218 109 349 222 144 125 245 315 244 463 0 121 -105 273
-228 334 -48 23 -75 29 -153 33 -52 2 -114 -1 -137 -6 -51 -12 -50 -13 -23 86
11 39 20 76 20 82 0 17 -39 11 -48 -7z m-1537 -1235 c-15 -66 -237 -664 -254
-681 -5 -5 -12 0 -16 14 -4 13 -22 65 -41 116 -19 51 -34 99 -34 107 0 36 316
476 342 476 6 0 7 -13 3 -32z m-326 -623 c22 -61 41 -118 41 -128 0 -27 -165
-391 -216 -477 -50 -84 -177 -240 -196 -240 -33 0 31 325 103 525 42 115 209
450 219 438 4 -4 26 -58 49 -118z"/>
<path d="M4236 5313 c-10 -32 -26 -196 -26 -265 0 -59 -3 -69 -22 -81 -91 -55
-171 -108 -217 -146 l-54 -44 8 84 c13 145 13 144 -15 144 -24 0 -25 -4 -33
-70 -11 -98 -5 -187 16 -219 l18 -26 67 68 c58 59 217 172 226 161 2 -2 8 -51
14 -109 13 -127 25 -164 57 -178 32 -15 38 -2 20 47 -12 36 -35 204 -35 261 0
14 26 31 93 63 141 68 214 88 349 94 113 6 119 5 173 -22 55 -26 95 -71 95
-105 0 -8 -11 -38 -24 -66 -48 -103 -245 -284 -541 -496 -150 -108 -243 -170
-540 -363 -66 -42 -185 -123 -265 -180 -121 -85 -476 -329 -834 -572 -43 -29
-80 -52 -82 -50 -2 1 2 47 7 101 6 53 9 99 6 102 -2 3 -13 6 -24 8 -18 4 -21
-3 -27 -71 -3 -42 -6 -97 -6 -123 0 -56 -6 -64 -95 -126 -77 -53 -367 -269
-429 -318 -21 -17 -44 -43 -52 -58 -25 -49 8 -34 118 55 103 82 422 319 437
325 4 1 11 -73 14 -165 6 -188 19 -270 49 -325 20 -34 45 -55 55 -44 3 2 -2
24 -11 48 -29 86 -48 215 -53 364 -5 142 -5 152 14 170 11 10 86 64 167 119
82 55 253 172 382 260 438 300 699 476 944 638 489 323 745 540 816 692 13 28
24 62 24 76 0 45 -62 112 -140 151 -40 20 -59 23 -160 21 -141 -1 -238 -25
-365 -87 -49 -25 -91 -43 -93 -41 -4 3 16 226 24 278 6 35 5 37 -19 37 -16 0
-28 -7 -31 -17z"/>
<path d="M2572 4495 c5 -125 14 -155 46 -155 13 0 14 17 8 132 -4 73 -10 136
-12 140 -3 4 -15 8 -26 8 -20 0 -21 -4 -16 -125z"/>
<path d="M2185 4450 c-7 -11 10 -113 30 -183 18 -59 50 -114 77 -128 32 -17
33 -3 4 60 -15 33 -36 102 -47 153 -18 83 -30 107 -51 108 -4 0 -10 -4 -13
-10z"/>
<path d="M5130 3954 c-22 -20 -61 -69 -87 -110 -25 -41 -50 -74 -53 -74 -4 0
-15 18 -25 41 -26 57 -71 89 -125 89 -38 0 -48 -5 -85 -44 -94 -98 -123 -349
-53 -452 13 -19 31 -34 42 -34 56 0 153 105 221 241 14 27 27 49 29 49 2 0 27
-16 56 -35 53 -36 106 -55 152 -55 42 0 76 37 93 105 18 71 19 98 4 182 -9 50
-19 72 -44 98 -43 46 -73 45 -125 -1z m94 -26 c19 -27 22 -210 5 -272 l-11
-38 -46 6 c-53 7 -146 56 -150 79 -4 19 121 211 151 232 28 20 33 19 51 -7z
m-327 -87 c9 -11 27 -45 39 -76 23 -56 23 -56 4 -100 -45 -105 -146 -235 -182
-235 -27 0 -38 40 -38 130 0 135 31 236 86 279 33 26 69 27 91 2z"/>
<path d="M4056 3742 c-3 -5 -15 -51 -26 -103 -20 -89 -33 -119 -51 -119 -13 0
-268 -139 -354 -193 -95 -60 -251 -175 -318 -234 -26 -24 -51 -43 -55 -43 -4
0 -13 28 -19 61 -12 62 -50 119 -80 119 -18 0 -17 -8 11 -92 43 -133 44 -127
-32 -215 -100 -116 -175 -243 -222 -374 -14 -40 -9 -69 14 -69 29 0 139 84
186 143 79 97 140 243 140 333 0 27 10 41 63 86 161 140 346 262 598 396 l77
40 -20 -70 c-21 -73 -112 -306 -148 -379 -67 -133 -188 -324 -226 -355 -23
-19 -44 -34 -48 -34 -10 0 -395 -242 -546 -343 -253 -169 -621 -442 -823 -609
-67 -56 -188 -168 -268 -248 -322 -325 -491 -589 -493 -772 -1 -54 2 -60 39
-98 49 -51 74 -51 162 -3 166 90 612 419 817 603 256 229 545 544 849 925 170
213 217 283 360 535 24 44 34 50 234 149 302 150 467 214 683 266 360 86 594
70 711 -47 162 -162 46 -385 -286 -551 -155 -77 -327 -123 -418 -111 -40 6
-49 4 -45 -7 11 -33 57 -42 144 -30 222 31 477 160 620 314 83 89 108 141 108
222 -1 103 -66 196 -180 253 -159 80 -411 70 -769 -30 -183 -51 -407 -147
-667 -287 -43 -22 -78 -38 -78 -35 0 3 8 18 19 32 115 165 244 440 301 642
l26 95 65 32 c58 30 273 103 342 118 16 3 27 12 27 22 0 13 -9 15 -58 10 -60
-6 -236 -63 -305 -99 -21 -10 -41 -17 -44 -14 -3 2 2 36 11 75 9 38 13 77 10
85 -7 17 -29 21 -38 8z m-892 -929 c-31 -77 -61 -128 -111 -191 -35 -42 -93
-82 -93 -62 0 29 149 277 204 338 20 23 21 23 24 4 2 -11 -9 -51 -24 -89z
m395 -245 c-70 -139 -335 -493 -609 -813 -135 -158 -498 -523 -615 -620 -143
-117 -566 -432 -658 -489 -137 -85 -174 -89 -204 -18 -14 34 -14 44 2 110 22
95 95 237 182 354 130 174 362 412 570 586 82 69 447 343 603 453 195 138 724
479 742 479 5 0 -1 -19 -13 -42z"/>
<path d="M2370 1715 c-22 -26 26 -192 52 -182 13 4 15 126 3 175 -6 25 -36 30
-55 7z"/>
<path d="M2213 1628 c-4 -7 -7 -40 -6 -73 1 -53 4 -62 32 -87 40 -36 55 -36
47 0 -3 15 -8 50 -12 77 -9 84 -13 95 -34 95 -10 0 -22 -6 -27 -12z"/>
<path d="M2483 1473 c-47 -95 -115 -173 -151 -173 -14 0 -45 12 -70 26 -75 44
-83 -9 -8 -55 71 -44 137 -18 217 89 54 73 79 123 79 160 0 54 -28 35 -67 -47z"/>
<path d="M3525 3517 c-135 -32 -239 -63 -299 -89 -87 -38 -204 -107 -210 -125
-8 -20 41 -16 72 6 70 49 216 108 414 167 87 25 106 60 23 41z"/>
</g>
</svg>
