<?xml version="1.0" standalone="no"?>
<!DOCTYPE svg PUBLIC "-//W3C//DTD SVG 20010904//EN"
 "http://www.w3.org/TR/2001/REC-SVG-20010904/DTD/svg10.dtd">
<svg version="1.0" xmlns="http://www.w3.org/2000/svg"
 width="154.000000pt" height="154.000000pt" viewBox="0 0 154.000000 154.000000"
 preserveAspectRatio="xMidYMid meet">

<g transform="translate(0.000000,154.000000) scale(0.100000,-0.100000)"
fill="#000000" stroke="none">
<path d="M485 1341 c-6 -6 -8 -48 -5 -97 l5 -87 -52 -33 c-60 -38 -102 -91
-147 -184 -29 -61 -31 -72 -31 -175 0 -94 3 -117 23 -156 36 -74 84 -115 204
-175 102 -51 120 -57 207 -65 88 -8 137 -5 239 17 31 6 32 5 32 -24 0 -37 -9
-43 -61 -46 -21 -1 -38 -6 -37 -12 2 -5 22 -8 46 -7 39 1 42 0 42 -26 0 -49
20 -64 88 -65 74 -1 89 18 17 22 -69 3 -77 7 -73 39 3 26 6 28 50 28 64 0 62
19 -2 23 l-51 3 3 41 c2 37 7 45 59 82 70 51 97 83 140 165 33 64 34 67 34
190 0 116 -2 131 -27 183 -14 31 -48 78 -74 104 l-47 47 2 76 c1 53 -2 82 -12
96 -14 19 -16 18 -58 -19 -24 -22 -53 -50 -64 -63 -19 -23 -22 -23 -80 -12
-35 7 -96 9 -147 5 l-88 -6 -24 38 c-28 44 -80 102 -93 102 -5 0 -13 -4 -18
-9z m43 -43 c18 -18 15 -28 -8 -28 -13 0 -20 7 -20 20 0 23 10 26 28 8z m519
-46 c3 -24 -19 -30 -47 -12 -13 8 -12 11 5 24 25 19 37 16 42 -12z m-468 -28
c14 -31 16 -28 -28 -43 -38 -12 -51 -4 -51 35 0 27 8 34 40 34 19 0 30 -7 39
-26z m457 -14 c9 0 14 -12 14 -35 0 -19 -1 -35 -3 -35 -1 0 -20 9 -42 20 -22
11 -45 20 -52 20 -16 0 -17 12 0 29 7 7 24 10 41 7 16 -3 35 -6 42 -6z m-128
-36 c184 -61 277 -172 289 -344 13 -176 -67 -324 -211 -395 -67 -32 -214 -64
-235 -50 -4 2 -47 9 -96 15 -73 9 -104 19 -177 57 -149 77 -208 164 -208 307
0 205 130 363 343 421 87 23 207 19 295 -11z"/>
<path d="M657 1053 c-15 -14 -7 -43 12 -43 22 0 45 25 36 40 -7 11 -38 14 -48
3z"/>
<path d="M800 1035 c0 -22 4 -26 23 -23 14 2 22 10 22 23 0 13 -8 21 -22 23
-19 3 -23 -1 -23 -23z"/>
<path d="M815 949 c-39 -24 -150 -27 -183 -3 -21 15 -42 12 -42 -6 0 -4 20
-16 45 -25 69 -27 198 -4 236 41 18 21 -19 17 -56 -7z"/>
<path d="M1147 369 c-39 -23 -59 -98 -37 -140 22 -39 98 -61 139 -39 47 25 51
121 6 166 -26 26 -76 32 -108 13z m92 -35 c34 -44 24 -113 -19 -126 -8 -3 -32
4 -54 14 -37 19 -38 21 -33 61 10 72 68 100 106 51z"/>
</g>
</svg>
