<?xml version="1.0" standalone="no"?>
<!DOCTYPE svg PUBLIC "-//W3C//DTD SVG 20010904//EN"
 "http://www.w3.org/TR/2001/REC-SVG-20010904/DTD/svg10.dtd">
<svg version="1.0" xmlns="http://www.w3.org/2000/svg"
 width="766.000000pt" height="384.000000pt" viewBox="0 0 766.000000 384.000000"
 preserveAspectRatio="xMidYMid meet">

<g transform="translate(0.000000,384.000000) scale(0.100000,-0.100000)"
fill="#000000" stroke="none">
<path d="M5804 3675 c-4 -9 -3 -28 2 -43 4 -15 9 -138 11 -273 l4 -246 -73
-13 c-40 -7 -140 -28 -223 -47 -82 -18 -259 -56 -392 -83 -289 -59 -322 -67
-938 -220 -564 -139 -714 -174 -722 -166 -3 3 13 32 35 65 23 33 42 64 42 70
0 13 -99 71 -121 71 -11 0 -35 -41 -75 -126 -37 -80 -66 -130 -79 -136 -19 -8
-520 -137 -835 -214 -209 -52 -356 -93 -600 -167 -304 -93 -684 -198 -848
-234 -29 -7 -29 7 4 200 37 222 59 320 115 532 28 105 53 199 56 210 3 16 -7
25 -58 46 -35 15 -68 25 -75 22 -6 -2 -14 -29 -18 -59 -3 -30 -27 -143 -52
-252 -56 -241 -91 -448 -107 -623 l-12 -133 -35 -9 c-91 -24 -697 -231 -708
-242 -17 -16 -7 -38 38 -80 l31 -30 62 23 c84 32 587 202 596 202 3 0 7 -100
7 -222 2 -758 143 -1243 384 -1321 110 -36 220 -10 288 67 18 21 85 142 149
269 63 127 141 275 173 327 31 52 72 124 89 159 39 76 52 71 62 -25 8 -75 40
-124 102 -157 36 -19 37 -19 70 2 51 31 277 268 277 290 0 12 -9 20 -29 24
-52 11 -127 -22 -221 -97 -49 -39 -75 -46 -66 -18 5 14 14 104 29 272 2 20 -4
26 -28 31 -51 11 -120 10 -137 -3 -31 -24 -311 -502 -380 -648 -139 -295 -188
-376 -245 -410 -51 -30 -86 -26 -133 16 -80 73 -177 322 -225 580 -39 209 -62
595 -48 799 l8 110 50 17 c93 30 429 126 605 172 96 25 269 75 383 111 221 69
541 158 722 201 61 15 200 48 309 75 110 27 201 47 203 45 2 -2 -12 -32 -31
-67 -69 -127 -198 -424 -211 -488 -22 -109 -35 -196 -35 -238 0 -95 58 -203
110 -203 11 0 34 7 50 15 23 12 30 23 30 44 0 16 -7 34 -16 42 -91 75 -43 282
168 719 50 102 94 195 98 207 7 17 27 25 107 43 92 21 152 36 441 110 64 17
169 41 232 55 63 13 207 47 320 74 113 27 261 62 330 77 69 14 240 53 380 86
266 62 572 128 594 128 10 0 12 -30 9 -132 -3 -73 -6 -139 -9 -147 -3 -10 -15
-4 -42 22 -20 20 -64 48 -97 64 -52 24 -72 27 -150 27 -165 -1 -321 -71 -456
-204 -162 -160 -211 -368 -160 -672 39 -228 111 -385 235 -517 92 -97 233
-153 456 -181 95 -11 297 7 403 37 51 14 59 14 75 1 46 -41 89 -31 165 40 29
27 99 85 157 129 253 194 363 313 444 478 49 100 122 330 132 415 19 169 -110
421 -245 479 -137 58 -268 64 -401 16 -118 -42 -178 -81 -282 -183 -54 -53
-101 -93 -105 -89 -3 4 -1 49 5 101 7 52 12 116 12 143 0 26 5 85 11 129 l12
82 161 31 c509 99 703 134 996 181 391 63 400 65 400 88 0 29 -28 60 -66 72
-42 14 -88 10 -260 -26 -66 -13 -212 -37 -325 -54 -251 -36 -795 -138 -883
-166 -18 -6 -18 1 -11 162 11 271 -6 329 -109 359 -60 18 -55 18 -62 0z m859
-950 c42 -19 95 -88 122 -155 29 -74 31 -201 6 -295 -34 -123 -96 -272 -147
-355 -95 -152 -164 -222 -151 -152 3 15 15 70 26 122 14 63 21 131 21 204 0
103 -2 111 -32 168 -68 128 -219 212 -426 238 -8 1 25 48 61 87 44 48 115 88
237 135 66 25 85 28 161 25 53 -3 99 -11 122 -22z m-1017 -31 c71 -86 124
-179 124 -218 0 -27 44 -88 69 -98 11 -4 27 -1 38 7 27 21 37 18 56 -15 10
-17 32 -37 48 -46 29 -14 33 -14 72 10 63 36 102 40 177 17 78 -24 131 -66
159 -124 48 -98 10 -367 -75 -541 -22 -45 -47 -75 -109 -126 -44 -37 -93 -82
-109 -99 -38 -40 -149 -83 -290 -111 -239 -49 -468 1 -597 129 -134 135 -199
345 -200 641 0 138 3 163 24 227 63 186 143 264 347 338 150 54 227 56 266 9z"/>
<path d="M4011 2380 c-120 -21 -189 -39 -197 -51 -11 -19 8 -46 56 -83 l50
-38 0 -159 c0 -157 0 -159 -22 -163 -171 -33 -245 -70 -315 -155 -50 -61 -92
-138 -104 -191 -11 -48 16 -162 47 -199 37 -44 107 -74 158 -69 118 14 230
101 294 231 33 67 72 199 72 244 0 12 3 23 8 23 4 1 30 3 57 5 28 2 129 9 225
16 96 6 185 16 198 20 49 18 9 100 -55 112 -15 3 -114 -2 -220 -11 -106 -9
-196 -12 -200 -8 -4 4 -9 69 -11 144 -4 117 -7 141 -24 165 -12 16 -17 32 -12
37 11 10 209 40 268 40 56 0 76 8 76 30 0 42 -89 81 -184 79 -33 -1 -108 -9
-165 -19z m-106 -657 c-29 -159 -153 -329 -254 -349 -28 -6 -32 -4 -46 30 -18
42 -9 88 30 167 37 72 70 105 138 137 136 65 142 66 132 15z"/>
<path d="M2515 1403 c-4 -10 -9 -88 -12 -173 -4 -144 -3 -157 16 -188 25 -39
76 -72 114 -72 31 0 33 10 12 70 -19 54 -19 132 0 239 16 92 14 101 -36 127
-39 20 -85 18 -94 -3z"/>
</g>
</svg>
